<?xml version="1.0" encoding="UTF-8" standalone="no"?>
<!-- Created with Inkscape (http://www.inkscape.org/) -->

<svg
   xmlns:dc="http://purl.org/dc/elements/1.1/"
   xmlns:cc="http://creativecommons.org/ns#"
   xmlns:rdf="http://www.w3.org/1999/02/22-rdf-syntax-ns#"
   xmlns:svg="http://www.w3.org/2000/svg"
   xmlns="http://www.w3.org/2000/svg"
   xmlns:sodipodi="http://sodipodi.sourceforge.net/DTD/sodipodi-0.dtd"
   xmlns:inkscape="http://www.inkscape.org/namespaces/inkscape"
   width="48.158928mm"
   height="48.15918mm"
   viewBox="0 0 170.64187 170.64276"
   id="svg4604"
   version="1.1"
   inkscape:version="0.91 r13725"
   sodipodi:docname="cardio.svg">
  <defs
     id="defs4606">
    <clipPath
       id="clipPath3460"
       clipPathUnits="userSpaceOnUse">
      <path
         inkscape:connector-curvature="0"
         id="path3462"
         d="m 363.242,457.133 152.504,0 0,-152.505 -152.504,0 0,152.505 z" />
    </clipPath>
  </defs>
  <sodipodi:namedview
     id="base"
     pagecolor="#ffffff"
     bordercolor="#666666"
     borderopacity="1.0"
     inkscape:pageopacity="0.0"
     inkscape:pageshadow="2"
     inkscape:zoom="0.35"
     inkscape:cx="-36.821925"
     inkscape:cy="85.321376"
     inkscape:document-units="px"
     inkscape:current-layer="layer1"
     showgrid="false"
     fit-margin-top="0"
     fit-margin-left="0"
     fit-margin-right="0"
     fit-margin-bottom="0"
     inkscape:window-width="683"
     inkscape:window-height="704"
     inkscape:window-x="0"
     inkscape:window-y="27"
     inkscape:window-maximized="0" />
  <metadata
     id="metadata4609">
    <rdf:RDF>
      <cc:Work
         rdf:about="">
        <dc:format>image/svg+xml</dc:format>
        <dc:type
           rdf:resource="http://purl.org/dc/dcmitype/StillImage" />
        <dc:title></dc:title>
      </cc:Work>
    </rdf:RDF>
  </metadata>
  <g
     inkscape:label="Capa 1"
     inkscape:groupmode="layer"
     id="layer1"
     transform="translate(-411.82192,-447.04082)">
    <g
       clip-path="url(#clipPath3460)"
       id="g3466"
       transform="matrix(1.1189337,0,0,-1.1189337,5.3782096,958.54234)"
       inkscape:export-xdpi="126"
       inkscape:export-ydpi="126">
      <g
         transform="translate(466.123,426.1572)"
         id="g3468">
        <path
           d="M 0,0 C -10.955,0 -20.639,-5.575 -26.638,-14.123 -32.627,-5.575 -42.303,0 -53.267,0 c -18.19,0 -32.941,-10.684 -32.941,-34.212 0,-8.134 3.678,-16.707 9.21,-25.011 l 28.984,0 5.855,29.367 c 0.22,1.1 1.144,1.931 2.245,1.855 1.076,-0.034 1.983,-0.856 2.152,-1.966 l 6.592,-43.226 5.718,54.368 c 0.119,1.177 1.085,2.075 2.221,2.075 l 0.025,0 c 1.143,-0.009 2.101,-0.924 2.203,-2.118 l 3.507,-40.431 5.939,16.598 c 0.356,0.982 1.305,1.618 2.313,1.508 1,-0.102 1.822,-0.898 1.992,-1.932 l 2.753,-16.944 27.23,0 c 6.084,8.701 10.218,17.631 10.218,25.857 C 32.949,-15.318 18.199,0 0,0 m -10.269,-52.444 -6.481,-18.064 c -0.365,-1.016 -1.356,-1.643 -2.39,-1.5 -1.042,0.145 -1.838,1.018 -1.931,2.102 l -2.372,27.383 -5.093,-48.446 c -0.118,-1.161 -1.05,-2.042 -2.169,-2.067 -0.016,-0.009 -0.042,-0.009 -0.059,-0.009 -1.092,0 -2.033,0.831 -2.202,1.966 l -7.295,47.827 -3.745,-18.767 c -0.221,-1.076 -1.127,-1.846 -2.195,-1.846 l -27.501,0 c 17.47,-23.19 47.064,-43.057 47.064,-43.057 0,0 28.341,19.724 45.93,42.209 l -25.68,0 c -1.093,0 -2.025,0.822 -2.203,1.941 l -1.678,10.328 z m -92.612,7.168 c 0,42.107 34.135,76.252 76.252,76.252 42.108,0 76.252,-34.145 76.252,-76.252 0,-42.118 -34.144,-76.253 -76.252,-76.253 -42.117,0 -76.252,34.135 -76.252,76.253"
           style="fill:#3871c1;fill-opacity:1;fill-rule:nonzero;stroke:none"
           id="path3470"
           inkscape:connector-curvature="0" />
      </g>
    </g>
  </g>
</svg>
