<?xml version="1.0" encoding="UTF-8" standalone="no"?>
<!-- Created with Inkscape (http://www.inkscape.org/) -->

<svg
   xmlns:dc="http://purl.org/dc/elements/1.1/"
   xmlns:cc="http://creativecommons.org/ns#"
   xmlns:rdf="http://www.w3.org/1999/02/22-rdf-syntax-ns#"
   xmlns:svg="http://www.w3.org/2000/svg"
   xmlns="http://www.w3.org/2000/svg"
   xmlns:sodipodi="http://sodipodi.sourceforge.net/DTD/sodipodi-0.dtd"
   xmlns:inkscape="http://www.inkscape.org/namespaces/inkscape"
   width="48.158928mm"
   height="48.159241mm"
   viewBox="0 0 170.64187 170.64298"
   id="svg4525"
   version="1.1"
   inkscape:version="0.91 r13725"
   sodipodi:docname="medicina.svg">
  <defs
     id="defs4527">
    <clipPath
       id="clipPath3440"
       clipPathUnits="userSpaceOnUse">
      <path
         inkscape:connector-curvature="0"
         id="path3442"
         d="m 177.449,457.133 152.505,0 0,-152.505 -152.505,0 0,152.505 z" />
    </clipPath>
  </defs>
  <sodipodi:namedview
     id="base"
     pagecolor="#ffffff"
     bordercolor="#666666"
     borderopacity="1.0"
     inkscape:pageopacity="0.0"
     inkscape:pageshadow="2"
     inkscape:zoom="0.35"
     inkscape:cx="157.46379"
     inkscape:cy="202.46436"
     inkscape:document-units="px"
     inkscape:current-layer="layer1"
     showgrid="false"
     fit-margin-top="0"
     fit-margin-left="0"
     fit-margin-right="0"
     fit-margin-bottom="0"
     inkscape:window-width="683"
     inkscape:window-height="704"
     inkscape:window-x="0"
     inkscape:window-y="27"
     inkscape:window-maximized="0" />
  <metadata
     id="metadata4530">
    <rdf:RDF>
      <cc:Work
         rdf:about="">
        <dc:format>image/svg+xml</dc:format>
        <dc:type
           rdf:resource="http://purl.org/dc/dcmitype/StillImage" />
        <dc:title></dc:title>
      </cc:Work>
    </rdf:RDF>
  </metadata>
  <g
     inkscape:label="Capa 1"
     inkscape:groupmode="layer"
     id="layer1"
     transform="translate(-217.53621,-564.18358)">
    <g
       clip-path="url(#clipPath3440)"
       id="g3446"
       transform="matrix(1.1189337,0,0,-1.1189337,18.981873,1075.6851)"
       inkscape:export-xdpi="126"
       inkscape:export-ydpi="126">
      <g
         transform="translate(276.1616,385.625)"
         id="g3448">
        <path
           d="M 0,0 C 8.549,10.854 14.056,30.128 11.565,40.456 10.963,42.93 8.735,47.09 0.508,47.09 l -0.169,0 c -0.686,1.745 -2.398,2.991 -4.389,2.991 -2.592,0 -4.702,-2.109 -4.702,-4.711 l 0,-6.396 c 0,-2.602 2.11,-4.711 4.702,-4.711 2.195,0 4.05,1.508 4.567,3.55 1.135,0.059 1.957,-0.026 2.372,-0.119 C 0.644,7.023 -12.615,0.949 -14.488,0.246 l -4.185,0 c -1.949,0.737 -15.14,6.862 -17.386,37.448 0.407,0.093 1.237,0.178 2.372,0.119 0.518,-2.042 2.364,-3.55 4.559,-3.55 2.601,0 4.711,2.109 4.711,4.711 l 0,6.396 c 0,2.602 -2.11,4.711 -4.711,4.711 -1.991,0 -3.694,-1.246 -4.38,-2.991 -8.397,0.034 -10.625,-4.143 -11.226,-6.634 -2.492,-10.319 3.016,-29.602 11.556,-40.456 3.652,-4.626 7.642,-7.438 11.692,-8.243 l -0.017,-38.736 c 0,-6.685 -5.448,-12.133 -12.133,-12.133 -6.693,0 -12.132,5.448 -12.132,12.133 l 0,13.961 c 4.016,1.865 6.685,5.932 6.685,10.464 0,6.364 -5.177,11.54 -11.54,11.54 -6.363,0 -11.539,-5.176 -11.539,-11.54 0,-4.685 2.897,-8.895 7.125,-10.658 l 0,-13.767 c 0,-11.794 9.599,-21.394 21.401,-21.394 11.896,0 21.952,9.795 21.952,21.394 l 0,38.736 C -7.634,-7.438 -3.643,-4.626 0,0 m -22.46,71.508 c 42.108,0 76.252,-34.145 76.252,-76.252 0,-42.117 -34.144,-76.253 -76.252,-76.253 -42.117,0 -76.252,34.136 -76.252,76.253 0,42.107 34.135,76.252 76.252,76.252"
           style="fill:#3871c1;fill-opacity:1;fill-rule:nonzero;stroke:none"
           id="path3450"
           inkscape:connector-curvature="0" />
      </g>
      <g
         transform="translate(225.5386,365.3506)"
         id="g3452">
        <path
           d="m 0,0 c 1.254,0 2.279,-1.025 2.279,-2.279 0,-1.254 -1.025,-2.28 -2.279,-2.28 -1.254,0 -2.279,1.026 -2.279,2.28 C -2.279,-1.025 -1.254,0 0,0"
           style="fill:#3871c1;fill-opacity:1;fill-rule:nonzero;stroke:none"
           id="path3454"
           inkscape:connector-curvature="0" />
      </g>
    </g>
  </g>
</svg>
