<?xml version="1.0" encoding="UTF-8" standalone="no"?>
<!-- Created with Inkscape (http://www.inkscape.org/) -->

<svg
   xmlns:dc="http://purl.org/dc/elements/1.1/"
   xmlns:cc="http://creativecommons.org/ns#"
   xmlns:rdf="http://www.w3.org/1999/02/22-rdf-syntax-ns#"
   xmlns:svg="http://www.w3.org/2000/svg"
   xmlns="http://www.w3.org/2000/svg"
   xmlns:sodipodi="http://sodipodi.sourceforge.net/DTD/sodipodi-0.dtd"
   xmlns:inkscape="http://www.inkscape.org/namespaces/inkscape"
   width="23.334747"
   height="17.105333"
   id="svg3172"
   version="1.1"
   inkscape:version="0.48.5 r10040"
   sodipodi:docname="pildora.svg">
  <defs
     id="defs3174" />
  <sodipodi:namedview
     id="base"
     pagecolor="#ffffff"
     bordercolor="#666666"
     borderopacity="1.0"
     inkscape:pageopacity="0.0"
     inkscape:pageshadow="2"
     inkscape:zoom="2.8"
     inkscape:cx="-6.3198692"
     inkscape:cy="3.8794056"
     inkscape:document-units="px"
     inkscape:current-layer="layer1"
     showgrid="false"
     fit-margin-top="0"
     fit-margin-left="0"
     fit-margin-right="0"
     fit-margin-bottom="0"
     inkscape:window-width="1366"
     inkscape:window-height="720"
     inkscape:window-x="0"
     inkscape:window-y="0"
     inkscape:window-maximized="1" />
  <metadata
     id="metadata3177">
    <rdf:RDF>
      <cc:Work
         rdf:about="">
        <dc:format>image/svg+xml</dc:format>
        <dc:type
           rdf:resource="http://purl.org/dc/dcmitype/StillImage" />
        <dc:title></dc:title>
      </cc:Work>
    </rdf:RDF>
  </metadata>
  <g
     inkscape:label="Capa 1"
     inkscape:groupmode="layer"
     id="layer1"
     transform="translate(-328.33262,-478.09523)">
    <g
       transform="translate(-621.55674,125.53682)"
       id="g4375">
      <path
         d="m 957.9294,367.86868 c -0.009,0 -0.0187,0 -0.0225,0.007 -1.68,0.5625 -3.56875,0.10625 -4.81,-1.16125 -0.0975,-0.0975 -0.0913,-0.25 0,-0.34625 0.0975,-0.0913 0.2525,-0.0913 0.34875,0.01 1.1125,1.13125 2.8025,1.54 4.3075,1.0375 0.1275,-0.0462 0.26375,0.0225 0.31,0.155 0.04,0.12125 -0.0237,0.24875 -0.13375,0.2975"
         style="fill:#231f20;fill-opacity:1;fill-rule:nonzero;stroke:none"
         id="path3431"
         inkscape:connector-curvature="0" />
      <path
         d="m 957.85615,367.71605 c 0.0388,-0.015 0.055,-0.0562 0.0488,-0.0962 -0.01,-0.0263 -0.03,-0.0337 -0.0425,-0.0425 -0.006,-0.004 -0.0312,-0.0125 -0.055,-0.004 -1.5675,0.52375 -3.325,0.10125 -4.4825,-1.0825 -0.0337,-0.0262 -0.0762,-0.0262 -0.1075,0 -0.0287,0.0325 -0.0287,0.0775 0,0.105 1.195,1.22125 3.02,1.66 4.63875,1.12 m -4.74375,-1.54875 c 0.155,-0.0663 0.33375,-0.0337 0.4525,0.0888 1.06625,1.08625 2.69375,1.48 4.135,0.9975 0.1075,-0.0325 0.21375,-0.0238 0.3175,0.025 0.0975,0.0462 0.16875,0.13 0.20125,0.23375 0.0712,0.20375 -0.0325,0.43 -0.22625,0.51125 -0.006,0.005 -0.0237,0.01 -0.0325,0.0125 -1.7375,0.5825 -3.7,0.11 -4.98125,-1.205 -0.16125,-0.165 -0.15625,-0.42375 0.005,-0.5825 0.0337,-0.0325 0.08,-0.0688 0.12875,-0.0813"
         style="fill:#231f20;fill-opacity:1;fill-rule:nonzero;stroke:none"
         id="path3435"
         inkscape:connector-curvature="0" />
      <path
         d="m 954.01577,358.35568 c -2.7775,1.1775 -4.0875,4.3975 -2.90375,7.175 1.17375,2.7825 4.395,4.08375 7.17375,2.9075 l 5.28375,-2.23875 c 0,-1.61375 -0.32,-3.19 -0.9525,-4.68875 -0.865,-2.0425 -2.26625,-3.79125 -4.0575,-5.08 l -4.54375,1.925 z m 15.39125,6.2375 -10.81125,4.57625 c -3.185,1.34375 -6.86625,-0.14625 -8.20875,-3.32875 -1.35,-3.1825 0.1425,-6.8675 3.3175,-8.2125 l 10.815,-4.57375 c 3.18,-1.34625 6.86125,0.1425 8.2075,3.32125 1.34875,3.18 -0.1425,6.8675 -3.32,8.2175"
         style="fill:#231f20;fill-opacity:1;fill-rule:nonzero;stroke:none"
         id="path3439"
         inkscape:connector-curvature="0" />
      <path
         d="m 963.51778,361.12668 c 0.63625,1.49875 0.95375,3.07 0.95375,4.68125 0.005,0 0.009,0.002 0.0113,0.009 l 4.5425,-1.9225 c 2.77625,-1.18 4.085,-4.4 2.905,-7.17625 -1.17375,-2.77875 -4.39875,-4.08375 -7.1725,-2.90875 l -5.285,2.24 c -0.002,0 -0.002,0.01 -0.002,0.01 1.78375,1.2825 3.18625,3.03625 4.0475,5.0675"
         style="fill:#3871c1;fill-opacity:1;fill-rule:nonzero;stroke:none"
         id="path3443"
         inkscape:connector-curvature="0" />
    </g>
  </g>
</svg>
