<?xml version="1.0" encoding="UTF-8" standalone="no"?>
<!-- Created with Inkscape (http://www.inkscape.org/) -->

<svg
   xmlns:dc="http://purl.org/dc/elements/1.1/"
   xmlns:cc="http://creativecommons.org/ns#"
   xmlns:rdf="http://www.w3.org/1999/02/22-rdf-syntax-ns#"
   xmlns:svg="http://www.w3.org/2000/svg"
   xmlns="http://www.w3.org/2000/svg"
   xmlns:sodipodi="http://sodipodi.sourceforge.net/DTD/sodipodi-0.dtd"
   xmlns:inkscape="http://www.inkscape.org/namespaces/inkscape"
   width="23.334747"
   height="17.105333"
   id="svg3172"
   version="1.1"
   inkscape:version="0.48.5 r10040"
   sodipodi:docname="pill-bg-white.svg"
   inkscape:export-filename="/home/mai/pill.png"
   inkscape:export-xdpi="113.2"
   inkscape:export-ydpi="113.2">
  <defs
     id="defs3174" />
  <sodipodi:namedview
     id="base"
     pagecolor="#ffffff"
     bordercolor="#666666"
     borderopacity="1.0"
     inkscape:pageopacity="0.0"
     inkscape:pageshadow="2"
     inkscape:zoom="15.839192"
     inkscape:cx="5.3488388"
     inkscape:cy="10.963467"
     inkscape:document-units="px"
     inkscape:current-layer="layer1"
     showgrid="false"
     fit-margin-top="0"
     fit-margin-left="0"
     fit-margin-right="0"
     fit-margin-bottom="0"
     inkscape:window-width="1366"
     inkscape:window-height="720"
     inkscape:window-x="0"
     inkscape:window-y="0"
     inkscape:window-maximized="1" />
  <metadata
     id="metadata3177">
    <rdf:RDF>
      <cc:Work
         rdf:about="">
        <dc:format>image/svg+xml</dc:format>
        <dc:type
           rdf:resource="http://purl.org/dc/dcmitype/StillImage" />
        <dc:title></dc:title>
      </cc:Work>
    </rdf:RDF>
  </metadata>
  <g
     inkscape:label="Capa 1"
     inkscape:groupmode="layer"
     id="layer1"
     transform="translate(-328.33262,-478.09523)">
    <g
       transform="translate(-621.55674,125.53682)"
       id="g4375">
      <path
         d="m 957.9294,367.86868 c -0.009,0 -0.0187,0 -0.0225,0.007 -1.68,0.5625 -3.56875,0.10625 -4.81,-1.16125 -0.0975,-0.0975 -0.0913,-0.25 0,-0.34625 0.0975,-0.0913 0.2525,-0.0913 0.34875,0.01 1.1125,1.13125 2.8025,1.54 4.3075,1.0375 0.1275,-0.0462 0.26375,0.0225 0.31,0.155 0.04,0.12125 -0.0237,0.24875 -0.13375,0.2975"
         style="fill:#231f20;fill-opacity:1;fill-rule:nonzero;stroke:none"
         id="path3431"
         inkscape:connector-curvature="0" />
      <path
         d="m 957.85615,367.71605 c 0.0388,-0.015 0.055,-0.0562 0.0488,-0.0962 -0.01,-0.0263 -0.03,-0.0337 -0.0425,-0.0425 -0.006,-0.004 -0.0312,-0.0125 -0.055,-0.004 -1.5675,0.52375 -3.325,0.10125 -4.4825,-1.0825 -0.0337,-0.0262 -0.0762,-0.0262 -0.1075,0 -0.0287,0.0325 -0.0287,0.0775 0,0.105 1.195,1.22125 3.02,1.66 4.63875,1.12 m -4.74375,-1.54875 c 0.155,-0.0663 0.33375,-0.0337 0.4525,0.0888 1.06625,1.08625 2.69375,1.48 4.135,0.9975 0.1075,-0.0325 0.21375,-0.0238 0.3175,0.025 0.0975,0.0462 0.16875,0.13 0.20125,0.23375 0.0712,0.20375 -0.0325,0.43 -0.22625,0.51125 -0.006,0.005 -0.0237,0.01 -0.0325,0.0125 -1.7375,0.5825 -3.7,0.11 -4.98125,-1.205 -0.16125,-0.165 -0.15625,-0.42375 0.005,-0.5825 0.0337,-0.0325 0.08,-0.0688 0.12875,-0.0813"
         style="fill:#231f20;fill-opacity:1;fill-rule:nonzero;stroke:none"
         id="path3435"
         inkscape:connector-curvature="0" />
      <path
         d="m 954.01577,358.35568 c -2.7775,1.1775 -4.0875,4.3975 -2.90375,7.175 1.17375,2.7825 4.395,4.08375 7.17375,2.9075 l 5.28375,-2.23875 c 0,-1.61375 -0.32,-3.19 -0.9525,-4.68875 -0.865,-2.0425 -2.26625,-3.79125 -4.0575,-5.08 l -4.54375,1.925 z m 15.39125,6.2375 -10.81125,4.57625 c -3.185,1.34375 -6.86625,-0.14625 -8.20875,-3.32875 -1.35,-3.1825 0.1425,-6.8675 3.3175,-8.2125 l 10.815,-4.57375 c 3.18,-1.34625 6.86125,0.1425 8.2075,3.32125 1.34875,3.18 -0.1425,6.8675 -3.32,8.2175"
         style="fill:#231f20;fill-opacity:1;fill-rule:nonzero;stroke:none"
         id="path3439"
         inkscape:connector-curvature="0" />
      <path
         d="m 963.51778,361.12668 c 0.63625,1.49875 0.95375,3.07 0.95375,4.68125 0.005,0 0.009,0.002 0.0113,0.009 l 4.5425,-1.9225 c 2.77625,-1.18 4.085,-4.4 2.905,-7.17625 -1.17375,-2.77875 -4.39875,-4.08375 -7.1725,-2.90875 l -5.285,2.24 c -0.002,0 -0.002,0.01 -0.002,0.01 1.78375,1.2825 3.18625,3.03625 4.0475,5.0675"
         style="fill:#3871c1;fill-opacity:1;fill-rule:nonzero;stroke:none"
         id="path3443"
         inkscape:connector-curvature="0" />
    </g>
    <path
       style="opacity:0.73033711;color:#000000;fill:#ffffff;fill-opacity:1;fill-rule:nonzero;stroke:#000000;stroke-width:0.06944799;stroke-linecap:round;stroke-linejoin:round;stroke-miterlimit:4;stroke-opacity:1;stroke-dasharray:none;stroke-dashoffset:0;marker:none;visibility:visible;display:inline;overflow:visible;enable-background:accumulate"
       d="M 5.4246003,16.212292 C 1.9771573,15.632777 -0.0703672,12.039847 1.2213217,8.8365124 1.6354553,7.8094784 2.3561022,6.9243246 3.274982,6.3140492 3.5952252,6.1013593 4.5188849,5.6732155 6.1677019,4.9731872 7.4999423,4.407566 8.6179425,3.944785 8.6521469,3.944785 c 0.1092057,0 0.9534924,0.7067101 1.4878741,1.2454264 1.526813,1.5391944 2.553182,3.3471275 3.110105,5.4784016 0.234276,0.896546 0.340061,1.620387 0.345795,2.366141 l 0.0046,0.598375 -2.335978,0.993908 c -2.9280428,1.245819 -3.3665001,1.417577 -3.9143412,1.533376 -0.4064878,0.08592 -1.5412292,0.116492 -1.9256033,0.05188 l -1.2e-6,0 z M 7.7319232,15.604547 C 7.9071448,15.55619 8.1108118,15.484351 8.184517,15.444905 8.3735916,15.343715 8.4303786,15.029854 8.2965624,14.825626 8.1991105,14.676895 8.1623548,14.665893 7.8648245,14.696396 7.6859549,14.714734 7.3549386,14.76331 7.1292327,14.804342 6.5860362,14.903093 5.9110533,14.843014 5.3111032,14.642513 4.734307,14.449749 4.4562575,14.293732 3.9209736,13.862495 3.486951,13.512836 3.2895372,13.466588 3.0886225,13.667503 c -0.211062,0.211062 -0.1652151,0.487579 0.1269171,0.765478 0.6683158,0.635754 1.5598972,1.065778 2.6510024,1.278623 0.2827969,0.05517 1.5387565,-0.01691 1.8653812,-0.107057 l 0,0 z"
       id="path2995"
       inkscape:connector-curvature="0"
       transform="translate(328.33262,478.09523)" />
  </g>
</svg>
